<svg width="528" height="105" viewBox="0 0 528 105" fill="none" xmlns="http://www.w3.org/2000/svg">
<path d="M37.824 56L32.128 29.184H31.872L26.176 56H10.624L0.32 11.968H15.04L20.096 36.928H20.352L25.344 11.968H39.296L44.608 36.928H44.864L49.6 11.968H63.68L53.376 56H37.824ZM63.616 56V11.968H77.76V56H63.616ZM103.083 11.2C109.611 11.2 114.774 12.8427 118.571 16.128C122.368 19.3707 124.267 24.0213 124.267 30.08H110.763C110.763 27.52 110.08 25.4933 108.715 24C107.392 22.5067 105.494 21.76 103.019 21.76C100.16 21.76 98.0483 22.656 96.683 24.448C95.3603 26.24 94.699 28.736 94.699 31.936V36.032C94.699 39.1893 95.3603 41.6853 96.683 43.52C98.0483 45.312 100.118 46.208 102.891 46.208C105.622 46.208 107.691 45.504 109.099 44.096C110.507 42.688 111.211 40.704 111.211 38.144H124.267C124.267 44.16 122.411 48.768 118.699 51.968C115.03 55.168 109.824 56.768 103.083 56.768C95.5737 56.768 89.8777 54.848 85.995 51.008C82.155 47.168 80.235 41.4933 80.235 33.984C80.235 26.4747 82.155 20.8 85.995 16.96C89.8777 13.12 95.5737 11.2 103.083 11.2ZM171.2 56L169.344 49.792H153.92L152.064 56H137.6L153.664 11.968H170.112L186.176 56H171.2ZM156.864 39.936H166.4L161.792 24.256H161.536L156.864 39.936ZM210.452 11.968C213.183 11.968 215.615 12.608 217.748 13.888C219.882 15.1253 221.546 16.8533 222.74 19.072C223.935 21.248 224.532 23.7013 224.532 26.432V27.264C224.532 29.9947 223.935 32.4693 222.74 34.688C221.546 36.9067 219.882 38.656 217.748 39.936C215.615 41.1733 213.183 41.792 210.452 41.792H199.892V56H185.748V11.968H210.452ZM199.892 31.488H205.716C207.21 31.488 208.319 31.104 209.044 30.336C209.812 29.568 210.196 28.5227 210.196 27.2V26.688C210.196 25.3227 209.812 24.2773 209.044 23.552C208.319 22.784 207.21 22.4 205.716 22.4H199.892V31.488ZM226.176 11.968H240.32V44.736H262.912V56H226.176V11.968ZM299.648 11.2C306.176 11.2 311.339 12.8427 315.136 16.128C318.933 19.3707 320.832 24.0213 320.832 30.08H307.328C307.328 27.52 306.645 25.4933 305.28 24C303.957 22.5067 302.059 21.76 299.584 21.76C296.725 21.76 294.613 22.656 293.248 24.448C291.925 26.24 291.264 28.736 291.264 31.936V36.032C291.264 39.1893 291.925 41.6853 293.248 43.52C294.613 45.312 296.683 46.208 299.456 46.208C302.187 46.208 304.256 45.504 305.664 44.096C307.072 42.688 307.776 40.704 307.776 38.144H320.832C320.832 44.16 318.976 48.768 315.264 51.968C311.595 55.168 306.389 56.768 299.648 56.768C292.139 56.768 286.443 54.848 282.56 51.008C278.72 47.168 276.8 41.4933 276.8 33.984C276.8 26.4747 278.72 20.8 282.56 16.96C286.443 13.12 292.139 11.2 299.648 11.2ZM334.549 25.728C335.914 24.3627 337.514 23.3173 339.349 22.592C341.183 21.824 343.103 21.44 345.109 21.44C349.034 21.44 351.978 22.528 353.941 24.704C355.903 26.88 356.885 30.016 356.885 34.112V56H344.149V35.648C344.149 34.1973 343.765 33.0453 342.997 32.192C342.271 31.296 341.226 30.848 339.861 30.848C338.282 30.848 337.002 31.36 336.021 32.384C335.039 33.408 334.549 34.6667 334.549 36.16V56H321.813V9.6H334.549V25.728ZM376.212 21.44C382.399 21.44 387.113 22.8907 390.356 25.792C393.641 28.6933 395.284 33.1307 395.284 39.104V41.28H369.94C369.94 43.712 370.473 45.5467 371.54 46.784C372.649 48.0213 374.377 48.64 376.724 48.64C378.857 48.64 380.415 48.192 381.396 47.296C382.42 46.4 382.932 45.2053 382.932 43.712H395.284C395.284 47.808 393.727 51.008 390.612 53.312C387.497 55.616 382.953 56.768 376.98 56.768C370.708 56.768 365.844 55.3173 362.388 52.416C358.932 49.472 357.204 45.0347 357.204 39.104C357.204 33.3013 358.889 28.9067 362.26 25.92C365.631 22.9333 370.281 21.44 376.212 21.44ZM376.724 29.568C372.713 29.568 370.473 31.4667 370.004 35.264H382.42C382.42 33.5147 381.908 32.128 380.884 31.104C379.903 30.08 378.516 29.568 376.724 29.568ZM413.139 21.44C418.686 21.44 423.166 22.6347 426.579 25.024C430.035 27.3707 431.763 30.976 431.763 35.84H419.411C419.411 32 417.321 30.08 413.139 30.08C408.958 30.08 406.867 32.4907 406.867 37.312V40.96C406.867 45.7387 409.043 48.128 413.395 48.128C417.747 48.128 419.923 46.1653 419.923 42.24H431.763C431.763 47.1467 430.035 50.7947 426.579 53.184C423.166 55.5733 418.686 56.768 413.139 56.768C407.209 56.768 402.558 55.2747 399.187 52.288C395.817 49.3013 394.131 44.9067 394.131 39.104C394.131 33.3013 395.817 28.9067 399.187 25.92C402.558 22.9333 407.209 21.44 413.139 21.44ZM455.085 22.208H469.933L457.453 35.84L470.253 56H455.789L448.685 44.416L444.269 48.704V56H431.533V9.536H444.269V35.136L455.085 22.208ZM483.744 21.44C489.931 21.44 494.646 22.8907 497.888 25.792C501.174 28.6933 502.816 33.1307 502.816 39.104V41.28H477.472C477.472 43.712 478.006 45.5467 479.072 46.784C480.182 48.0213 481.91 48.64 484.256 48.64C486.39 48.64 487.947 48.192 488.928 47.296C489.952 46.4 490.464 45.2053 490.464 43.712H502.816C502.816 47.808 501.259 51.008 498.144 53.312C495.03 55.616 490.486 56.768 484.512 56.768C478.24 56.768 473.376 55.3173 469.92 52.416C466.464 49.472 464.736 45.0347 464.736 39.104C464.736 33.3013 466.422 28.9067 469.792 25.92C473.163 22.9333 477.814 21.44 483.744 21.44ZM484.256 29.568C480.246 29.568 478.006 31.4667 477.536 35.264H489.952C489.952 33.5147 489.44 32.128 488.416 31.104C487.435 30.08 486.048 29.568 484.256 29.568ZM523.744 21.376C524.725 21.376 525.6 21.504 526.368 21.76C527.136 21.9733 527.52 22.1013 527.52 22.144V32.832H523.424C520.779 32.832 518.859 33.5147 517.664 34.88C516.512 36.2453 515.936 38.272 515.936 40.96V56H503.2V22.208H513.632L514.464 27.328C515.232 25.3653 516.448 23.8933 518.112 22.912C519.776 21.888 521.653 21.376 523.744 21.376Z" fill="#B13B57"/>
<path d="M373.112 98L363.864 87.312V98H357.368V75.984H363.544L372.792 86.832V75.984H379.288V98H373.112ZM389.048 80.72C391.63 80.72 393.731 81.1573 395.352 82.032C396.974 82.8853 397.784 84.2827 397.784 86.224V92.816C397.784 93.1787 397.87 93.4773 398.04 93.712C398.211 93.9467 398.467 94.064 398.808 94.064H399.96V97.744C399.896 97.7867 399.726 97.8613 399.448 97.968C399.192 98.0533 398.819 98.1387 398.328 98.224C397.838 98.3307 397.272 98.384 396.632 98.384C395.395 98.384 394.371 98.2027 393.56 97.84C392.771 97.456 392.227 96.9333 391.928 96.272C391.118 96.912 390.211 97.424 389.208 97.808C388.206 98.192 387.032 98.384 385.688 98.384C381.72 98.384 379.736 96.8053 379.736 93.648C379.736 92.0053 380.174 90.7573 381.048 89.904C381.944 89.0293 383.224 88.432 384.888 88.112C386.552 87.792 388.728 87.632 391.416 87.632V86.8C391.416 86.1387 391.182 85.6373 390.712 85.296C390.264 84.9547 389.678 84.784 388.952 84.784C388.291 84.784 387.715 84.9013 387.224 85.136C386.755 85.3707 386.52 85.744 386.52 86.256V86.384H380.248C380.227 86.2773 380.216 86.128 380.216 85.936C380.216 84.336 380.974 83.0667 382.488 82.128C384.024 81.1893 386.211 80.72 389.048 80.72ZM391.416 90.64C389.603 90.64 388.259 90.8427 387.384 91.248C386.531 91.632 386.104 92.1547 386.104 92.816C386.104 93.8827 386.83 94.416 388.28 94.416C389.112 94.416 389.838 94.192 390.456 93.744C391.096 93.296 391.416 92.7413 391.416 92.08V90.64ZM409.893 81.104V85.424H406.309V91.856C406.309 92.624 406.437 93.1893 406.693 93.552C406.949 93.8933 407.418 94.064 408.101 94.064H409.893V97.808C409.381 97.9787 408.719 98.1173 407.909 98.224C407.098 98.3307 406.394 98.384 405.797 98.384C403.919 98.384 402.469 98.0427 401.445 97.36C400.442 96.6773 399.941 95.5147 399.941 93.872V85.424H397.573V81.104H400.197L401.573 75.984H406.309V81.104H409.893ZM410.192 79.12V74.8H416.56V79.12H410.192ZM410.192 98V81.104H416.56V98H410.192ZM426.48 80.72C429.445 80.72 431.77 81.4773 433.456 82.992C435.162 84.4853 436.016 86.672 436.016 89.552C436.016 92.432 435.162 94.6293 433.456 96.144C431.77 97.6373 429.445 98.384 426.48 98.384C423.514 98.384 421.189 97.6373 419.504 96.144C417.818 94.6507 416.976 92.4533 416.976 89.552C416.976 86.6507 417.818 84.4533 419.504 82.96C421.189 81.4667 423.514 80.72 426.48 80.72ZM426.48 85.04C424.389 85.04 423.344 86.2453 423.344 88.656V90.48C423.344 92.8693 424.389 94.064 426.48 94.064C428.592 94.064 429.648 92.8693 429.648 90.48V88.656C429.648 86.2453 428.592 85.04 426.48 85.04ZM447.855 80.72C449.818 80.72 451.29 81.264 452.271 82.352C453.253 83.44 453.743 85.008 453.743 87.056V98H447.375V87.824C447.375 87.0987 447.183 86.5227 446.799 86.096C446.437 85.648 445.914 85.424 445.231 85.424C444.442 85.424 443.802 85.68 443.311 86.192C442.821 86.704 442.575 87.3333 442.575 88.08V98H436.207V81.104H441.423L441.839 83.664C442.501 82.768 443.365 82.0533 444.431 81.52C445.519 80.9867 446.661 80.72 447.855 80.72ZM470.543 98L467.919 88.592H467.791L465.135 98H458.927L452.751 81.104H459.599L462.159 91.088H462.383L465.039 81.104H471.375L473.935 91.088H474.159L476.751 81.104H482.959L476.751 98H470.543ZM482.234 79.12V74.8H488.602V79.12H482.234ZM482.234 98V81.104H488.602V98H482.234ZM502.074 98L501.53 95.6C500.293 97.456 498.501 98.384 496.154 98.384C493.872 98.384 492.112 97.6373 490.874 96.144C489.637 94.6507 489.018 92.4427 489.018 89.52C489.018 86.6187 489.637 84.432 490.874 82.96C492.112 81.4667 493.872 80.72 496.154 80.72C498.096 80.72 499.674 81.3707 500.89 82.672V74.8H507.258V98H502.074ZM498.138 85.424C496.304 85.424 495.386 86.5227 495.386 88.72V90.416C495.386 92.592 496.304 93.68 498.138 93.68C499.077 93.68 499.781 93.3493 500.25 92.688C500.72 92.0267 500.954 91.1627 500.954 90.096V89.04C500.954 87.9733 500.72 87.1093 500.25 86.448C499.781 85.7653 499.077 85.424 498.138 85.424ZM516.986 80.72C520.079 80.72 522.437 81.4453 524.058 82.896C525.701 84.3467 526.522 86.5653 526.522 89.552V90.64H513.85C513.85 91.856 514.117 92.7733 514.65 93.392C515.205 94.0107 516.069 94.32 517.242 94.32C518.309 94.32 519.087 94.096 519.578 93.648C520.09 93.2 520.346 92.6027 520.346 91.856H526.522C526.522 93.904 525.743 95.504 524.186 96.656C522.629 97.808 520.357 98.384 517.37 98.384C514.234 98.384 511.802 97.6587 510.074 96.208C508.346 94.736 507.482 92.5173 507.482 89.552C507.482 86.6507 508.325 84.4533 510.01 82.96C511.695 81.4667 514.021 80.72 516.986 80.72ZM517.242 84.784C515.237 84.784 514.117 85.7333 513.882 87.632H520.09C520.09 86.7573 519.834 86.064 519.322 85.552C518.831 85.04 518.138 84.784 517.242 84.784Z" fill="#B13B57"/>
</svg>
